<svg xmlns="http://www.w3.org/2000/svg" viewBox="0 0 50.84 45.24"><defs><style>.cls-1{fill:none;}</style></defs><title>bold</title><g id="Capa_2" data-name="Capa 2"><g id="Capa_1-2" data-name="Capa 1"><rect class="cls-1" width="50.84" height="45.24"/><g id="Capa_2-2" data-name="Capa 2"><g id="Capa_1-2-2" data-name="Capa 1-2"><path d="M10.8,0H24.88q9.61,0,14,2.74t4.35,8.7a11,11,0,0,1-1.9,6.65,7.6,7.6,0,0,1-5.06,3.12v.31q4.3,1,6.16,3.59a11.67,11.67,0,0,1,1.9,7,11.51,11.51,0,0,1-4.45,9.64q-4.47,3.47-12.14,3.47H10.8Zm9.59,17.91H26q3.9,0,5.65-1.21a4.5,4.5,0,0,0,1.76-4A4,4,0,0,0,31.47,9a12.39,12.39,0,0,0-6-1.13h-5Zm0,7.61V37.29h6.24q4,0,5.84-1.51a5.59,5.59,0,0,0,1.88-4.64q0-5.63-8-5.63Z"/></g></g></g></g></svg>