<svg xmlns="http://www.w3.org/2000/svg" viewBox="0 0 100 87.92"><title>clear</title><g id="Capa_2" data-name="Capa 2"><g id="Capa_1-2" data-name="Capa 1"><path d="M96.42,84.11H46.8L97.27,33.63a9.36,9.36,0,0,0,0-13.22L79.42,2.56a9.23,9.23,0,0,0-5-2.56S66.22.43,58.33,1.33a10.13,10.13,0,0,0-5.86,3.06L2.73,54.13a9.35,9.35,0,0,0,0,13.22L20.58,85.19a9.25,9.25,0,0,0,6.59,2.72l12.17-.24,2-.22h55a1.68,1.68,0,0,0,0-3.35ZM43.28,82.33a5.62,5.62,0,0,1-7.93,0L17.5,64.49a5.62,5.62,0,0,1,0-7.93L42.92,31.13,68.63,57ZM65.27,4l5-.41L42.84,31.05l-4.21-.42ZM5.38,64.7a5.62,5.62,0,0,1,0-7.94L32.23,29.91l6,.64L14.85,53.91a9.36,9.36,0,0,0,0,13.22l17,17H26.45a5.5,5.5,0,0,1-3.22-1.56Z"/></g></g></svg>