<svg xmlns="http://www.w3.org/2000/svg" viewBox="0 0 43.93 43.74"><defs><style>.cls-1{fill:none;stroke:#000;stroke-miterlimit:10;stroke-width:4px;}</style></defs><title>link</title><g id="Capa_2" data-name="Capa 2"><g id="Capa_1-2" data-name="Capa 1"><path class="cls-1" d="M33.8,22.38l5.82-5.82a8,8,0,0,0,0-11.25l-1-1a8,8,0,0,0-11.25,0s-7,6.4-8.89,8.89c-2.89,3.76-3.21,5.55,1.6,12.91"/><path class="cls-1" d="M10.13,21.32,4.31,27.18a8,8,0,0,0,0,11.25l1,1a8,8,0,0,0,11.25,0s7-6.4,8.89-8.89c2.89-3.76,3.21-5.55-1.6-12.91"/></g></g></svg>